<svg width="92" height="112" viewBox="0 0 92 112" fill="none" xmlns="http://www.w3.org/2000/svg">
<rect x="79" width="12.8" height="112" fill="black"/>
<mask id="mask0_1_30" style="mask-type:alpha" maskUnits="userSpaceOnUse" x="0" y="0" width="70" height="112">
<rect width="70" height="112" fill="black"/>
</mask>
<g mask="url(#mask0_1_30)">
<path d="M57.0001 115.72V98.696L60.4561 101.768C54.1414 101.597 48.2107 100.659 42.6641 98.952C37.1174 97.2453 32.3814 94.8987 28.4561 91.912L34.0881 76.296C38.0134 79.112 42.4507 81.3306 47.4001 82.952C52.3494 84.5733 57.5547 85.384 63.0161 85.384C68.9041 85.384 73.1281 84.4453 75.6881 82.568C78.2481 80.6053 79.5281 78.2587 79.5281 75.528C79.5281 73.224 78.6321 71.3466 76.8401 69.896C75.0481 68.4453 71.9334 67.208 67.4961 66.184L53.4161 63.112C45.5654 61.4053 39.7201 58.504 35.8801 54.408C32.0401 50.2267 30.1201 44.808 30.1201 38.152C30.1201 33.032 31.3574 28.4666 33.8321 24.456C36.3921 20.4453 39.8907 17.2026 44.3281 14.728C48.8507 12.2533 54.1414 10.76 60.2001 10.248L57.0001 12.296V-3.96002H72.2321V12.296L69.0321 9.99198C74.0667 10.3333 78.9734 11.3573 83.7521 13.064C88.5307 14.6853 92.4561 17.032 95.5281 20.104L89.8961 34.696C86.7387 31.9653 83.0694 29.9173 78.8881 28.552C74.7067 27.1013 70.1841 26.376 65.3201 26.376C60.2001 26.376 56.1894 27.4 53.2881 29.448C50.4721 31.496 49.0641 34.1413 49.0641 37.384C49.0641 39.7733 49.9174 41.736 51.6241 43.272C53.4161 44.7226 56.4454 45.9173 60.7121 46.856L74.6641 49.928C82.7707 51.6346 88.7867 54.4933 92.7121 58.504C96.7227 62.5146 98.7281 67.72 98.7281 74.12C98.7281 79.1546 97.4907 83.6347 95.0161 87.56C92.5414 91.4 89.1281 94.5146 84.7761 96.904C80.4241 99.2933 75.3467 100.829 69.5441 101.512L72.2321 98.568V115.72H57.0001Z" fill="black"/>
</g>
</svg>
